<svg width="142" height="29" viewBox="0 0 142 29" fill="none" xmlns="http://www.w3.org/2000/svg">
<g id="g18">
<path id="path16" d="M6.76167 14.5L3.54619 17.7751L0.333496 14.5L3.54619 11.2249L6.76167 14.5ZM14.5572 6.54738L20.0627 12.1627L23.2754 8.88755L14.5572 0L5.83899 8.88755L9.05169 12.1627L14.5572 6.54738ZM25.5709 11.2249L22.3582 14.5L25.5709 17.7751L28.7809 14.5L25.5709 11.2249ZM14.5572 22.4526L9.05169 16.8402L5.83899 20.1124L14.5572 29L23.2754 20.1124L20.0627 16.8402L14.5572 22.4526ZM14.5572 17.7751L17.7699 14.5L14.5572 11.2249L11.3445 14.5L14.5572 17.7751ZM48.4628 18.0896V18.0442C48.4628 15.9081 47.3511 14.84 45.5419 14.1374C46.6536 13.4999 47.5929 12.4998 47.5929 10.7064V10.6611C47.5929 8.16227 45.6308 6.54738 42.4432 6.54738H35.2063V22.4526H42.6266C46.1478 22.4526 48.4684 20.9992 48.4684 18.0896H48.4628ZM44.1829 11.2901C44.1829 12.4715 43.2241 12.9729 41.7095 12.9729H38.5496V9.61567H41.9374C43.3853 9.61567 44.1885 10.205 44.1885 11.2504L44.1829 11.2901ZM45.0528 17.6533C45.0528 18.8347 44.1384 19.3787 42.621 19.3787H38.5496V15.8854H42.5154C44.2774 15.8854 45.0583 16.5455 45.0583 17.6136L45.0528 17.6533ZM55.6747 22.4526V6.54738H52.2313V22.4526H55.6747ZM74.1255 22.4526V6.54738H70.7266V16.3415L63.4174 6.54738H60.2519V22.4526H63.6397V12.3411L71.1935 22.4526H74.1255ZM93.1376 22.4526L86.4399 6.43405H83.2744L76.5906 22.4526H80.0895L81.5208 18.8857H88.1185L89.5442 22.4526H93.1376ZM86.8984 15.7947H82.7408L84.8141 10.6384L86.8984 15.7947ZM109.498 22.4526V6.54738H106.1V16.3415L98.7876 6.54738H95.625V22.4526H99.01V12.3411L106.566 22.4526H109.498ZM127.216 19.8858L125.034 17.6363C123.808 18.7695 122.716 19.4976 120.932 19.4976C118.258 19.4976 116.407 17.2311 116.407 14.5V14.4547C116.407 11.7292 118.303 9.50234 120.932 9.50234C122.491 9.50234 123.711 10.1823 124.923 11.2957L127.099 8.7289C125.651 7.2755 123.892 6.2754 120.949 6.2754C116.157 6.2754 112.814 9.97831 112.814 14.4915V14.5368C112.814 19.1038 116.224 22.7161 120.815 22.7161C123.819 22.7246 125.601 21.6338 127.204 19.8858H127.216ZM141.862 22.4526V19.3362H133.38V15.9902H140.736V12.8738H133.38V9.661H141.739V6.54455H129.97V22.4498L141.862 22.4526Z" fill="#B6B3EB"/>
</g>
</svg>
