<svg width="64" height="26" viewBox="0 0 64 26" fill="none" xmlns="http://www.w3.org/2000/svg">
<g id="Clip path group">
<mask id="mask0_2_8108" style="mask-type:luminance" maskUnits="userSpaceOnUse" x="0" y="0" width="64" height="26">
<g id="b">
<path id="Vector" d="M0.0166016 0V5.33555H3.54392V20.5065H0.11264V25.7778H12.387V20.5065H8.85964V5.33555H12.2909V0H0.0166016ZM34.9524 0.0642837V5.33555H38.4798V20.5065H35.0485V25.7778H43.7954V11.1108L49.0075 25.7726L49.1135 25.7752L54.2321 11.1108V25.7778H63.0748V20.5065H59.5474V5.33555H62.9788V0.0642837H53.1208L49.0393 11.8211L44.906 0.0642837H34.9524Z" fill="white"/>
<path id="a" d="M14.0308 0.0651703V5.33643H17.5581V13.6933H31.1352V12.0909C31.1352 12.0909 32.271 11.1882 32.6329 10.3316L33.3595 8.66955C33.3595 8.66955 33.697 7.73923 33.697 6.90785L33.5517 5.24579C33.5517 5.24579 33.3236 3.89179 32.926 3.48905L31.5219 1.82442C31.5219 1.82442 29.7353 0.0651703 27.3689 0.0651703H14.0308ZM22.8735 5.33643H28.0438V10.222H22.8735V5.33643Z" fill="white"/>
<path id="a_2" d="M14.0308 25.7778V20.5065H17.5581V12.1497H31.1352V13.7521C31.1352 13.7521 32.271 14.6548 32.6329 15.5114L33.3595 17.1734C33.3595 17.1734 33.697 18.1037 33.697 18.9351L33.5517 20.5972C33.5517 20.5972 33.3236 21.9512 32.926 22.3539L31.5219 24.0185C31.5219 24.0185 29.7353 25.7778 27.3689 25.7778H14.0308ZM22.8735 20.5065H28.0438V15.621H22.8735V20.5065Z" fill="white"/>
</g>
</mask>
<g mask="url(#mask0_2_8108)">
<g id="Vector_2">
<path d="M0.0166016 0.943893H64.9671V4.36584H0.0166016M0.0166016 7.7878H61.4989V11.2104H0.0166016V14.6317H61.4989V18.053H0.0166016M0.0166016 21.4756H64.9671V24.8982H0.0166016" fill="#B6B3EB"/>
<path d="M0.0166016 0.943893H64.9671V4.36584H0.0166016M0.0166016 7.7878H61.4989V11.2104H0.0166016V14.6317H61.4989V18.053H0.0166016M0.0166016 21.4756H64.9671V24.8982H0.0166016" stroke="#B6B3EB" stroke-width="25.2648"/>
</g>
</g>
</g>
</svg>
