<svg width="293" height="162" viewBox="0 0 293 162" fill="none" xmlns="http://www.w3.org/2000/svg">
<g filter="url(#filter0_b_2_8081)">
<g clip-path="url(#clip0_2_8081)">
<rect x="0.333496" width="292" height="162" rx="15" fill="white" fill-opacity="0.01"/>
<rect x="0.333496" width="342" height="190" rx="15" fill="#0E0A5F" fill-opacity="0.6"/>
<path d="M21.1335 81.644L19.5255 82.532V82.268L21.1335 83.156L20.6655 83.972L19.1175 83.072L19.2735 82.988L19.2855 84.704H18.3735L18.3855 82.988L18.5415 83.072L17.0055 83.972L16.5255 83.156L18.1455 82.268V82.532L16.5255 81.644L17.0055 80.816L18.5415 81.728L18.3855 81.824L18.3735 80.096H19.2855L19.2735 81.824L19.1175 81.728L20.6655 80.816L21.1335 81.644ZM27.5601 81.644L25.9521 82.532V82.268L27.5601 83.156L27.0921 83.972L25.5441 83.072L25.7001 82.988L25.7121 84.704H24.8001L24.8121 82.988L24.9681 83.072L23.4321 83.972L22.9521 83.156L24.5721 82.268V82.532L22.9521 81.644L23.4321 80.816L24.9681 81.728L24.8121 81.824L24.8001 80.096H25.7121L25.7001 81.824L25.5441 81.728L27.0921 80.816L27.5601 81.644ZM33.9866 81.644L32.3786 82.532V82.268L33.9866 83.156L33.5186 83.972L31.9706 83.072L32.1266 82.988L32.1386 84.704H31.2266L31.2386 82.988L31.3946 83.072L29.8586 83.972L29.3786 83.156L30.9986 82.268V82.532L29.3786 81.644L29.8586 80.816L31.3946 81.728L31.2386 81.824L31.2266 80.096H32.1386L32.1266 81.824L31.9706 81.728L33.5186 80.816L33.9866 81.644ZM40.4132 81.644L38.8052 82.532V82.268L40.4132 83.156L39.9452 83.972L38.3972 83.072L38.5532 82.988L38.5652 84.704H37.6532L37.6652 82.988L37.8212 83.072L36.2852 83.972L35.8052 83.156L37.4252 82.268V82.532L35.8052 81.644L36.2852 80.816L37.8212 81.728L37.6652 81.824L37.6532 80.096H38.5652L38.5532 81.824L38.3972 81.728L39.9452 80.816L40.4132 81.644ZM55.6382 81.644L54.0302 82.532V82.268L55.6382 83.156L55.1702 83.972L53.6222 83.072L53.7782 82.988L53.7902 84.704H52.8782L52.8902 82.988L53.0462 83.072L51.5102 83.972L51.0302 83.156L52.6502 82.268V82.532L51.0302 81.644L51.5102 80.816L53.0462 81.728L52.8902 81.824L52.8782 80.096H53.7902L53.7782 81.824L53.6222 81.728L55.1702 80.816L55.6382 81.644ZM62.0647 81.644L60.4567 82.532V82.268L62.0647 83.156L61.5967 83.972L60.0487 83.072L60.2047 82.988L60.2167 84.704H59.3047L59.3167 82.988L59.4727 83.072L57.9367 83.972L57.4567 83.156L59.0767 82.268V82.532L57.4567 81.644L57.9367 80.816L59.4727 81.728L59.3167 81.824L59.3047 80.096H60.2167L60.2047 81.824L60.0487 81.728L61.5967 80.816L62.0647 81.644ZM68.4913 81.644L66.8833 82.532V82.268L68.4913 83.156L68.0233 83.972L66.4753 83.072L66.6313 82.988L66.6433 84.704H65.7313L65.7433 82.988L65.8993 83.072L64.3633 83.972L63.8833 83.156L65.5033 82.268V82.532L63.8833 81.644L64.3633 80.816L65.8993 81.728L65.7433 81.824L65.7313 80.096H66.6433L66.6313 81.824L66.4753 81.728L68.0233 80.816L68.4913 81.644ZM74.9179 81.644L73.3099 82.532V82.268L74.9179 83.156L74.4499 83.972L72.9019 83.072L73.0579 82.988L73.0699 84.704H72.1579L72.1699 82.988L72.3259 83.072L70.7899 83.972L70.3099 83.156L71.9299 82.268V82.532L70.3099 81.644L70.7899 80.816L72.3259 81.728L72.1699 81.824L72.1579 80.096H73.0699L73.0579 81.824L72.9019 81.728L74.4499 80.816L74.9179 81.644ZM90.1429 81.644L88.5349 82.532V82.268L90.1429 83.156L89.6749 83.972L88.1269 83.072L88.2829 82.988L88.2949 84.704H87.3829L87.3949 82.988L87.5509 83.072L86.0149 83.972L85.5349 83.156L87.1549 82.268V82.532L85.5349 81.644L86.0149 80.816L87.5509 81.728L87.3949 81.824L87.3829 80.096H88.2949L88.2829 81.824L88.1269 81.728L89.6749 80.816L90.1429 81.644ZM96.5694 81.644L94.9614 82.532V82.268L96.5694 83.156L96.1014 83.972L94.5534 83.072L94.7094 82.988L94.7214 84.704H93.8094L93.8214 82.988L93.9774 83.072L92.4414 83.972L91.9614 83.156L93.5814 82.268V82.532L91.9614 81.644L92.4414 80.816L93.9774 81.728L93.8214 81.824L93.8094 80.096H94.7214L94.7094 81.824L94.5534 81.728L96.1014 80.816L96.5694 81.644ZM102.996 81.644L101.388 82.532V82.268L102.996 83.156L102.528 83.972L100.98 83.072L101.136 82.988L101.148 84.704H100.236L100.248 82.988L100.404 83.072L98.868 83.972L98.388 83.156L100.008 82.268V82.532L98.388 81.644L98.868 80.816L100.404 81.728L100.248 81.824L100.236 80.096H101.148L101.136 81.824L100.98 81.728L102.528 80.816L102.996 81.644ZM109.423 81.644L107.815 82.532V82.268L109.423 83.156L108.955 83.972L107.407 83.072L107.563 82.988L107.575 84.704H106.663L106.675 82.988L106.831 83.072L105.295 83.972L104.815 83.156L106.435 82.268V82.532L104.815 81.644L105.295 80.816L106.831 81.728L106.675 81.824L106.663 80.096H107.575L107.563 81.824L107.407 81.728L108.955 80.816L109.423 81.644ZM124.648 81.644L123.04 82.532V82.268L124.648 83.156L124.18 83.972L122.632 83.072L122.788 82.988L122.8 84.704H121.888L121.9 82.988L122.056 83.072L120.52 83.972L120.04 83.156L121.66 82.268V82.532L120.04 81.644L120.52 80.816L122.056 81.728L121.9 81.824L121.888 80.096H122.8L122.788 81.824L122.632 81.728L124.18 80.816L124.648 81.644ZM131.074 81.644L129.466 82.532V82.268L131.074 83.156L130.606 83.972L129.058 83.072L129.214 82.988L129.226 84.704H128.314L128.326 82.988L128.482 83.072L126.946 83.972L126.466 83.156L128.086 82.268V82.532L126.466 81.644L126.946 80.816L128.482 81.728L128.326 81.824L128.314 80.096H129.226L129.214 81.824L129.058 81.728L130.606 80.816L131.074 81.644ZM137.501 81.644L135.893 82.532V82.268L137.501 83.156L137.033 83.972L135.485 83.072L135.641 82.988L135.653 84.704H134.741L134.753 82.988L134.909 83.072L133.373 83.972L132.893 83.156L134.513 82.268V82.532L132.893 81.644L133.373 80.816L134.909 81.728L134.753 81.824L134.741 80.096H135.653L135.641 81.824L135.485 81.728L137.033 80.816L137.501 81.644ZM143.927 81.644L142.319 82.532V82.268L143.927 83.156L143.459 83.972L141.911 83.072L142.067 82.988L142.079 84.704H141.167L141.179 82.988L141.335 83.072L139.799 83.972L139.319 83.156L140.939 82.268V82.532L139.319 81.644L139.799 80.816L141.335 81.728L141.179 81.824L141.167 80.096H142.079L142.067 81.824L141.911 81.728L143.459 80.816L143.927 81.644Z" fill="white"/>
<path d="M19.6935 139.44V128.16H20.6775V139.44H19.6935ZM20.0655 138.12C19.4095 138.12 18.7815 138.028 18.1815 137.844C17.5815 137.652 17.1055 137.408 16.7535 137.112L17.2935 135.9C17.6295 136.164 18.0455 136.384 18.5415 136.56C19.0375 136.736 19.5455 136.824 20.0655 136.824C20.5055 136.824 20.8615 136.776 21.1335 136.68C21.4055 136.584 21.6055 136.456 21.7335 136.296C21.8615 136.128 21.9255 135.94 21.9255 135.732C21.9255 135.476 21.8335 135.272 21.6495 135.12C21.4655 134.96 21.2255 134.836 20.9295 134.748C20.6415 134.652 20.3175 134.564 19.9575 134.484C19.6055 134.404 19.2495 134.312 18.8895 134.208C18.5375 134.096 18.2135 133.956 17.9175 133.788C17.6295 133.612 17.3935 133.38 17.2095 133.092C17.0255 132.804 16.9335 132.436 16.9335 131.988C16.9335 131.532 17.0535 131.116 17.2935 130.74C17.5415 130.356 17.9135 130.052 18.4095 129.828C18.9135 129.596 19.5495 129.48 20.3175 129.48C20.8215 129.48 21.3215 129.544 21.8175 129.672C22.3135 129.8 22.7455 129.984 23.1135 130.224L22.6215 131.436C22.2455 131.212 21.8575 131.048 21.4575 130.944C21.0575 130.832 20.6735 130.776 20.3055 130.776C19.8735 130.776 19.5215 130.828 19.2495 130.932C18.9855 131.036 18.7895 131.172 18.6615 131.34C18.5415 131.508 18.4815 131.7 18.4815 131.916C18.4815 132.172 18.5695 132.38 18.7455 132.54C18.9295 132.692 19.1655 132.812 19.4535 132.9C19.7495 132.988 20.0775 133.076 20.4375 133.164C20.7975 133.244 21.1535 133.336 21.5055 133.44C21.8655 133.544 22.1895 133.68 22.4775 133.848C22.7735 134.016 23.0095 134.244 23.1855 134.532C23.3695 134.82 23.4615 135.184 23.4615 135.624C23.4615 136.072 23.3375 136.488 23.0895 136.872C22.8495 137.248 22.4775 137.552 21.9735 137.784C21.4695 138.008 20.8335 138.12 20.0655 138.12ZM25.6352 138V130.2L26.3192 130.908H23.8592V129.6H27.1952V138H25.6352ZM32.3655 138.12C31.7015 138.12 31.1015 137.952 30.5655 137.616C30.0375 137.28 29.6215 136.792 29.3175 136.152C29.0135 135.504 28.8615 134.72 28.8615 133.8C28.8615 132.88 29.0135 132.1 29.3175 131.46C29.6215 130.812 30.0375 130.32 30.5655 129.984C31.1015 129.648 31.7015 129.48 32.3655 129.48C33.0375 129.48 33.6375 129.648 34.1655 129.984C34.6935 130.32 35.1095 130.812 35.4135 131.46C35.7255 132.1 35.8815 132.88 35.8815 133.8C35.8815 134.72 35.7255 135.504 35.4135 136.152C35.1095 136.792 34.6935 137.28 34.1655 137.616C33.6375 137.952 33.0375 138.12 32.3655 138.12ZM32.3655 136.764C32.7575 136.764 33.0975 136.66 33.3855 136.452C33.6735 136.236 33.8975 135.908 34.0575 135.468C34.2255 135.028 34.3095 134.472 34.3095 133.8C34.3095 133.12 34.2255 132.564 34.0575 132.132C33.8975 131.692 33.6735 131.368 33.3855 131.16C33.0975 130.944 32.7575 130.836 32.3655 130.836C31.9895 130.836 31.6535 130.944 31.3575 131.16C31.0695 131.368 30.8415 131.692 30.6735 132.132C30.5135 132.564 30.4335 133.12 30.4335 133.8C30.4335 134.472 30.5135 135.028 30.6735 135.468C30.8415 135.908 31.0695 136.236 31.3575 136.452C31.6535 136.66 31.9895 136.764 32.3655 136.764ZM40.4397 138.12C39.7757 138.12 39.1757 137.952 38.6397 137.616C38.1117 137.28 37.6957 136.792 37.3917 136.152C37.0877 135.504 36.9357 134.72 36.9357 133.8C36.9357 132.88 37.0877 132.1 37.3917 131.46C37.6957 130.812 38.1117 130.32 38.6397 129.984C39.1757 129.648 39.7757 129.48 40.4397 129.48C41.1117 129.48 41.7117 129.648 42.2397 129.984C42.7677 130.32 43.1837 130.812 43.4877 131.46C43.7997 132.1 43.9557 132.88 43.9557 133.8C43.9557 134.72 43.7997 135.504 43.4877 136.152C43.1837 136.792 42.7677 137.28 42.2397 137.616C41.7117 137.952 41.1117 138.12 40.4397 138.12ZM40.4397 136.764C40.8317 136.764 41.1717 136.66 41.4597 136.452C41.7477 136.236 41.9717 135.908 42.1317 135.468C42.2997 135.028 42.3837 134.472 42.3837 133.8C42.3837 133.12 42.2997 132.564 42.1317 132.132C41.9717 131.692 41.7477 131.368 41.4597 131.16C41.1717 130.944 40.8317 130.836 40.4397 130.836C40.0637 130.836 39.7277 130.944 39.4317 131.16C39.1437 131.368 38.9157 131.692 38.7477 132.132C38.5877 132.564 38.5077 133.12 38.5077 133.8C38.5077 134.472 38.5877 135.028 38.7477 135.468C38.9157 135.908 39.1437 136.236 39.4317 136.452C39.7277 136.66 40.0637 136.764 40.4397 136.764ZM48.5139 138.12C47.8499 138.12 47.2499 137.952 46.7139 137.616C46.1859 137.28 45.7699 136.792 45.4659 136.152C45.1619 135.504 45.0099 134.72 45.0099 133.8C45.0099 132.88 45.1619 132.1 45.4659 131.46C45.7699 130.812 46.1859 130.32 46.7139 129.984C47.2499 129.648 47.8499 129.48 48.5139 129.48C49.1859 129.48 49.7859 129.648 50.3139 129.984C50.8419 130.32 51.2579 130.812 51.5619 131.46C51.8739 132.1 52.0299 132.88 52.0299 133.8C52.0299 134.72 51.8739 135.504 51.5619 136.152C51.2579 136.792 50.8419 137.28 50.3139 137.616C49.7859 137.952 49.1859 138.12 48.5139 138.12ZM48.5139 136.764C48.9059 136.764 49.2459 136.66 49.5339 136.452C49.8219 136.236 50.0459 135.908 50.2059 135.468C50.3739 135.028 50.4579 134.472 50.4579 133.8C50.4579 133.12 50.3739 132.564 50.2059 132.132C50.0459 131.692 49.8219 131.368 49.5339 131.16C49.2459 130.944 48.9059 130.836 48.5139 130.836C48.1379 130.836 47.8019 130.944 47.5059 131.16C47.2179 131.368 46.9899 131.692 46.8219 132.132C46.6619 132.564 46.5819 133.12 46.5819 133.8C46.5819 134.472 46.6619 135.028 46.8219 135.468C46.9899 135.908 47.2179 136.236 47.5059 136.452C47.8019 136.66 48.1379 136.764 48.5139 136.764ZM59.9046 138.12C59.2406 138.12 58.6406 137.952 58.1046 137.616C57.5766 137.28 57.1606 136.792 56.8566 136.152C56.5526 135.504 56.4006 134.72 56.4006 133.8C56.4006 132.88 56.5526 132.1 56.8566 131.46C57.1606 130.812 57.5766 130.32 58.1046 129.984C58.6406 129.648 59.2406 129.48 59.9046 129.48C60.5766 129.48 61.1766 129.648 61.7046 129.984C62.2326 130.32 62.6486 130.812 62.9526 131.46C63.2646 132.1 63.4206 132.88 63.4206 133.8C63.4206 134.72 63.2646 135.504 62.9526 136.152C62.6486 136.792 62.2326 137.28 61.7046 137.616C61.1766 137.952 60.5766 138.12 59.9046 138.12ZM59.9046 136.764C60.2966 136.764 60.6366 136.66 60.9246 136.452C61.2126 136.236 61.4366 135.908 61.5966 135.468C61.7646 135.028 61.8486 134.472 61.8486 133.8C61.8486 133.12 61.7646 132.564 61.5966 132.132C61.4366 131.692 61.2126 131.368 60.9246 131.16C60.6366 130.944 60.2966 130.836 59.9046 130.836C59.5286 130.836 59.1926 130.944 58.8966 131.16C58.6086 131.368 58.3806 131.692 58.2126 132.132C58.0526 132.564 57.9726 133.12 57.9726 133.8C57.9726 134.472 58.0526 135.028 58.2126 135.468C58.3806 135.908 58.6086 136.236 58.8966 136.452C59.1926 136.66 59.5286 136.764 59.9046 136.764ZM67.9788 138.12C67.3148 138.12 66.7148 137.952 66.1788 137.616C65.6508 137.28 65.2348 136.792 64.9308 136.152C64.6268 135.504 64.4748 134.72 64.4748 133.8C64.4748 132.88 64.6268 132.1 64.9308 131.46C65.2348 130.812 65.6508 130.32 66.1788 129.984C66.7148 129.648 67.3148 129.48 67.9788 129.48C68.6508 129.48 69.2508 129.648 69.7788 129.984C70.3068 130.32 70.7228 130.812 71.0268 131.46C71.3388 132.1 71.4948 132.88 71.4948 133.8C71.4948 134.72 71.3388 135.504 71.0268 136.152C70.7228 136.792 70.3068 137.28 69.7788 137.616C69.2508 137.952 68.6508 138.12 67.9788 138.12ZM67.9788 136.764C68.3708 136.764 68.7108 136.66 68.9988 136.452C69.2868 136.236 69.5108 135.908 69.6708 135.468C69.8388 135.028 69.9228 134.472 69.9228 133.8C69.9228 133.12 69.8388 132.564 69.6708 132.132C69.5108 131.692 69.2868 131.368 68.9988 131.16C68.7108 130.944 68.3708 130.836 67.9788 130.836C67.6028 130.836 67.2668 130.944 66.9708 131.16C66.6828 131.368 66.4548 131.692 66.2868 132.132C66.1268 132.564 66.0468 133.12 66.0468 133.8C66.0468 134.472 66.1268 135.028 66.2868 135.468C66.4548 135.908 66.6828 136.236 66.9708 136.452C67.2668 136.66 67.6028 136.764 67.9788 136.764ZM76.053 138.12C75.389 138.12 74.789 137.952 74.253 137.616C73.725 137.28 73.309 136.792 73.005 136.152C72.701 135.504 72.549 134.72 72.549 133.8C72.549 132.88 72.701 132.1 73.005 131.46C73.309 130.812 73.725 130.32 74.253 129.984C74.789 129.648 75.389 129.48 76.053 129.48C76.725 129.48 77.325 129.648 77.853 129.984C78.381 130.32 78.797 130.812 79.101 131.46C79.413 132.1 79.569 132.88 79.569 133.8C79.569 134.72 79.413 135.504 79.101 136.152C78.797 136.792 78.381 137.28 77.853 137.616C77.325 137.952 76.725 138.12 76.053 138.12ZM76.053 136.764C76.445 136.764 76.785 136.66 77.073 136.452C77.361 136.236 77.585 135.908 77.745 135.468C77.913 135.028 77.997 134.472 77.997 133.8C77.997 133.12 77.913 132.564 77.745 132.132C77.585 131.692 77.361 131.368 77.073 131.16C76.785 130.944 76.445 130.836 76.053 130.836C75.677 130.836 75.341 130.944 75.045 131.16C74.757 131.368 74.529 131.692 74.361 132.132C74.201 132.564 74.121 133.12 74.121 133.8C74.121 134.472 74.201 135.028 74.361 135.468C74.529 135.908 74.757 136.236 75.045 136.452C75.341 136.66 75.677 136.764 76.053 136.764ZM84.5396 138V129.6H86.0996V136.68H90.4916V138H84.5396ZM91.7232 138V129.6H93.2832V138H91.7232ZM95.5552 138V129.6H96.8392L100.511 135.732H99.8392L103.451 129.6H104.735L104.747 138H103.271L103.259 131.916H103.571L100.499 137.04H99.8032L96.6832 131.916H97.0432V138H95.5552ZM107.016 138V129.6H108.576V138H107.016ZM112.552 138V130.92H109.768V129.6H116.896V130.92H114.112V138H112.552Z" fill="white"/>
<path d="M218.237 134.5V129.1H219.521V134.5H218.237ZM216.113 132.4V131.2H221.645V132.4H216.113Z" fill="white"/>
<path opacity="0.9" d="M216.944 117L213.844 110H214.644L217.544 116.59H217.104L220.024 110H220.774L217.674 117H216.944ZM220.456 117L223.656 110H224.386L227.586 117H226.806L223.866 110.43H224.166L221.226 117H220.456ZM221.716 115.13L221.936 114.53H226.006L226.226 115.13H221.716ZM228.744 117V110H229.484V116.36H233.404V117H228.744ZM234.632 117V110H235.372V117H234.632ZM237.65 117V110H240.5C241.246 110 241.9 110.15 242.46 110.45C243.026 110.743 243.466 111.153 243.78 111.68C244.093 112.207 244.25 112.813 244.25 113.5C244.25 114.187 244.093 114.793 243.78 115.32C243.466 115.847 243.026 116.26 242.46 116.56C241.9 116.853 241.246 117 240.5 117H237.65ZM238.39 116.36H240.46C241.08 116.36 241.616 116.24 242.07 116C242.53 115.753 242.886 115.417 243.14 114.99C243.393 114.557 243.52 114.06 243.52 113.5C243.52 112.933 243.393 112.437 243.14 112.01C242.886 111.583 242.53 111.25 242.07 111.01C241.616 110.763 241.08 110.64 240.46 110.64H238.39V116.36ZM249.889 117V110.64H247.429V110H253.089V110.64H250.629V117H249.889ZM254.271 117V110H255.011V117H254.271ZM257.288 117V110H258.028V116.36H261.948V117H257.288ZM263.177 117V110H263.917V116.36H267.837V117H263.177Z" fill="white"/>
<g clip-path="url(#clip1_2_8081)">
<circle cx="26.3335" cy="31.9608" r="10" fill="#EB001B"/>
<circle cx="38.3335" cy="31.9608" r="10" fill="#F79E1B"/>
<path fill-rule="evenodd" clip-rule="evenodd" d="M32.3336 39.9608C35.0941 38.3639 36.9513 35.3792 36.9513 31.9608C36.9513 28.5423 35.0941 25.5577 32.3336 23.9608C29.5731 25.5577 27.7158 28.5423 27.7158 31.9608C27.7158 35.3792 29.5731 38.3639 32.3336 39.9608Z" fill="#FF5F00"/>
</g>
<g clip-path="url(#clip2_2_8081)">
<path d="M238.333 131C236.847 131 235.862 132.113 235.333 132.941C234.805 132.113 233.819 131 232.333 131C231.538 131 230.775 131.316 230.212 131.879C229.65 132.441 229.333 133.204 229.333 134C229.333 134.796 229.65 135.559 230.212 136.121C230.775 136.684 231.538 137 232.333 137C233.819 137 234.805 135.886 235.333 135.059C235.862 135.886 236.847 137 238.333 137C239.129 137 239.892 136.684 240.455 136.121C241.017 135.559 241.333 134.796 241.333 134C241.333 133.204 241.017 132.441 240.455 131.879C239.892 131.316 239.129 131 238.333 131ZM232.333 136C231.803 136 231.294 135.789 230.919 135.414C230.544 135.039 230.333 134.53 230.333 134C230.333 133.47 230.544 132.961 230.919 132.586C231.294 132.211 231.803 132 232.333 132C233.68 132 234.524 133.473 234.783 134C234.526 134.53 233.687 136 232.333 136ZM238.333 136C236.987 136 236.142 134.527 235.883 134C236.141 133.471 236.98 132 238.333 132C238.864 132 239.373 132.211 239.748 132.586C240.123 132.961 240.333 133.47 240.333 134C240.333 134.53 240.123 135.039 239.748 135.414C239.373 135.789 238.864 136 238.333 136Z" fill="white"/>
</g>
</g>
</g>
<defs>
<filter id="filter0_b_2_8081" x="-10.6665" y="-11" width="314" height="184" filterUnits="userSpaceOnUse" color-interpolation-filters="sRGB">
<feFlood flood-opacity="0" result="BackgroundImageFix"/>
<feGaussianBlur in="BackgroundImageFix" stdDeviation="5.5"/>
<feComposite in2="SourceAlpha" operator="in" result="effect1_backgroundBlur_2_8081"/>
<feBlend mode="normal" in="SourceGraphic" in2="effect1_backgroundBlur_2_8081" result="shape"/>
</filter>
<clipPath id="clip0_2_8081">
<rect x="0.333496" width="292" height="162" rx="15" fill="white"/>
</clipPath>
<clipPath id="clip1_2_8081">
<rect width="32" height="32" fill="white" transform="translate(16.3335 16)"/>
</clipPath>
<clipPath id="clip2_2_8081">
<rect width="12" height="12" fill="white" transform="translate(229.333 128)"/>
</clipPath>
</defs>
</svg>
