<svg width="104" height="26" viewBox="0 0 104 26" fill="none" xmlns="http://www.w3.org/2000/svg">
<g id="Group 13">
<path id="Vector" fill-rule="evenodd" clip-rule="evenodd" d="M33.2549 25.4078H37.1786V14.2966H39.2859C44.8083 14.2966 52.1481 13.8514 52.1481 7.40723C52.1481 0.888555 45.245 0.369967 39.722 0.369967H28.6768V1.03655C32.601 1.48111 33.2549 2.07429 33.2549 4.36992V25.4078ZM37.1786 4.36986C37.1786 2.1477 37.3963 1.8517 41.1029 1.8517C45.1717 1.8517 47.642 3.7034 47.642 7.40723C47.642 12.2223 43.4279 12.8889 39.1407 12.8889H37.1786V4.36986ZM56.3627 4.81448C56.3627 1.77767 55.7084 1.55576 51.7843 1.03655V0.369967H60.9398L75.2548 20.7413H75.3274V0.369967H77.7259V25.4078H74.2374L58.8325 3.62999H58.76V25.4078H56.3627V4.81448ZM103.449 24.7406C101.269 25.3338 99.1622 25.7778 94.8744 25.7778C86.3002 25.7778 81.6493 19.6302 81.6493 12.0737C81.6493 5.33307 84.4109 0 93.7845 0C100.688 0 103.159 2.96222 103.449 5.48107H99.0166C98.7991 4.29596 97.9992 1.70314 93.4939 1.70314C88.6256 1.70314 86.0827 5.40766 86.0827 11.1112C86.0827 16.3708 87.3901 24.1487 97.418 24.1487C100.106 24.1487 102.941 23.3335 103.449 23.1855V24.7406Z" fill="#B6B3EB"/>
<g id="Group 11">
<path id="Vector_2" fill-rule="evenodd" clip-rule="evenodd" d="M19.1197 14.6693H16.2774C16.3958 14.3678 16.3371 13.9457 16.1 13.4623L14.5009 10.7462L11.8361 5.9764C11.8361 5.9764 10.8296 4.0447 9.34924 2.89798C10.2967 3.26028 22.2587 10.3834 22.2587 10.3834C24.2132 11.5909 25.9301 14.609 19.1197 14.6693ZM10.1187 22.3366C8.16425 23.4833 4.67033 23.4833 8.04593 17.4471C8.63796 16.42 9.46706 14.9115 9.46706 14.9115C9.70419 15.213 10.0596 15.3939 10.5924 15.3939H19.1197C19.1197 15.3939 21.2522 15.4542 22.9695 14.7306C22.1996 15.3336 10.1187 22.3366 10.1187 22.3366ZM6.03283 5.67438C6.03283 3.38089 7.80935 0.30151 11.2441 6.27836C11.8361 7.36531 12.6653 8.81404 12.6653 8.81404C12.3098 8.87387 12.0136 9.11606 11.7178 9.59897L10.1779 12.3758L7.45396 17.0843C7.45396 17.0843 6.32859 18.9557 6.09196 20.8884C5.97315 19.8009 6.03283 5.67438 6.03283 5.67438ZM12.8427 0C5.85488 0 0.229004 5.73517 0.229004 12.8587C0.229004 19.9819 5.85488 25.7778 12.8427 25.7778C19.831 25.7778 25.516 19.9819 25.516 12.8587C25.516 5.73517 19.831 0 12.8427 0Z" fill="#B6B3EB"/>
<path id="Vector_3" d="M23.0391 24.3286H23.2563C23.4832 24.3286 23.6272 24.2022 23.6272 24.0104C23.6272 23.7946 23.473 23.6998 23.249 23.6968C23.1462 23.6968 23.0735 23.7072 23.0391 23.717V24.3286ZM22.8271 23.5659C22.9343 23.5431 23.088 23.5303 23.2345 23.5303C23.4614 23.5303 23.6073 23.5728 23.7101 23.6677C23.793 23.7418 23.8396 23.8564 23.8396 23.9853C23.8396 24.2071 23.7028 24.3538 23.5297 24.4136V24.421C23.6563 24.4655 23.7319 24.585 23.7707 24.7589C23.8245 24.9926 23.8638 25.1541 23.8982 25.2188H23.6781C23.6509 25.1694 23.6151 25.0271 23.5685 24.8187C23.5196 24.587 23.4313 24.5005 23.2388 24.4926H23.0391V25.2188H22.8271V23.5659Z" fill="#B6B3EB"/>
<path id="Vector_4" d="M22.1494 24.3836C22.1509 25.0377 22.6701 25.5657 23.3107 25.5667C23.9526 25.5657 24.47 25.0376 24.4719 24.3836C24.47 23.7305 23.9526 23.2029 23.3107 23.2015C22.6701 23.2029 22.1509 23.7305 22.1494 24.3836ZM21.9458 24.3836C21.9458 23.6159 22.5562 22.9935 23.3107 22.9935C24.0646 22.9935 24.677 23.6159 24.677 24.3836C24.677 25.1528 24.0646 25.7762 23.3107 25.7762C22.5562 25.7762 21.9458 25.1528 21.9458 24.3836Z" fill="#B6B3EB"/>
</g>
</g>
</svg>
