<svg width="62" height="26" viewBox="0 0 62 26" fill="none" xmlns="http://www.w3.org/2000/svg">
<g id="g32">
<path id="path18" fill-rule="evenodd" clip-rule="evenodd" d="M61.3335 13.3191C61.3335 8.91379 59.2403 5.43774 55.2397 5.43774C51.2223 5.43774 48.7915 8.91379 48.7915 13.2847C48.7915 18.4643 51.6611 21.0799 55.7799 21.0799C57.7887 21.0799 59.3079 20.6153 60.4557 19.9614V16.5198C59.3079 17.1049 57.9912 17.4662 56.3201 17.4662C54.6827 17.4662 53.231 16.8812 53.0453 14.8506H61.2997C61.2997 14.6269 61.3335 13.7321 61.3335 13.3191ZM52.9947 11.6843C52.9947 9.73978 54.1594 8.93099 55.2229 8.93099C56.2526 8.93099 57.3498 9.73978 57.3498 11.6843H52.9947Z" fill="#B6B3EB"/>
<path id="path20" fill-rule="evenodd" clip-rule="evenodd" d="M42.2753 5.43774C40.621 5.43774 39.5576 6.22932 38.9668 6.77998L38.7473 5.71307H35.0337V25.7777L39.2537 24.8657L39.2706 19.9958C39.8783 20.4432 40.773 21.0799 42.2584 21.0799C45.28 21.0799 48.0314 18.602 48.0314 13.147C48.0146 8.15663 45.2293 5.43774 42.2753 5.43774ZM41.2625 17.2941C40.2666 17.2941 39.6757 16.9328 39.2706 16.4854L39.2537 10.1011C39.6926 9.60211 40.3003 9.25795 41.2625 9.25795C42.7986 9.25795 43.862 11.0132 43.862 13.2674C43.862 15.5733 42.8155 17.2941 41.2625 17.2941Z" fill="#B6B3EB"/>
<path id="polygon22" fill-rule="evenodd" clip-rule="evenodd" d="M33.4645 0L29.2275 0.912031V4.42249L33.4645 3.49325V0Z" fill="#B6B3EB"/>
<path id="rect24" fill-rule="evenodd" clip-rule="evenodd" d="M29.2275 5.73032H33.4645V20.7874H29.2275V5.73032Z" fill="#B6B3EB"/>
<path id="path26" fill-rule="evenodd" clip-rule="evenodd" d="M24.6862 7.0037L24.4161 5.7303H20.77V20.7874H24.9901V10.583C25.986 9.25797 27.674 9.49888 28.1973 9.68817V5.7303C27.6571 5.5238 25.6822 5.14522 24.6862 7.0037Z" fill="#B6B3EB"/>
<path id="path28" fill-rule="evenodd" clip-rule="evenodd" d="M16.247 1.99614L12.1282 2.89096L12.1113 16.6747C12.1113 19.2215 13.985 21.0972 16.4833 21.0972C17.8675 21.0972 18.8803 20.839 19.4373 20.5293V17.036C18.8972 17.2598 16.2301 18.0513 16.2301 15.5045V9.39564H19.4373V5.7303H16.2301L16.247 1.99614Z" fill="#B6B3EB"/>
<path id="path30" fill-rule="evenodd" clip-rule="evenodd" d="M4.83563 10.1011C4.83563 9.43003 5.3758 9.17191 6.27045 9.17191C7.55335 9.17191 9.17385 9.56769 10.4567 10.2732V6.22932C9.05569 5.66145 7.67151 5.43774 6.27045 5.43774C2.84377 5.43774 0.564941 7.26181 0.564941 10.3076C0.564941 15.0571 6.97942 14.2999 6.97942 16.3477C6.97942 17.1393 6.30421 17.3974 5.35892 17.3974C3.95786 17.3974 2.16856 16.8123 0.750623 16.0207V20.1163C2.32048 20.8046 3.90722 21.0971 5.35892 21.0971C8.87 21.0971 11.2839 19.3247 11.2839 16.2444C11.267 11.1164 4.83563 12.0285 4.83563 10.1011Z" fill="#B6B3EB"/>
</g>
</svg>
