<svg width="128" height="26" viewBox="0 0 128 26" fill="none" xmlns="http://www.w3.org/2000/svg">
<g id="Group 12">
<g id="Clip path group">
<mask id="mask0_2_8120" style="mask-type:luminance" maskUnits="userSpaceOnUse" x="0" y="0" width="26" height="26">
<g id="c">
<path id="Vector" d="M16.0999 21.3017C17.7604 21.2808 19.3364 21.0331 20.7313 20.5555C21.0821 20.4348 21.4175 20.3012 21.7345 20.1569C21.3463 21.1229 20.7764 21.9287 20.0331 22.5276C18.5671 23.6279 16.8375 24.3827 14.96 24.6707C15.4292 23.8433 15.8083 22.6741 16.0999 21.3017ZM8.28493 23.6487C8.25041 23.6193 8.21307 23.592 8.1708 23.5719C7.51773 23.2472 7.25355 21.7628 7.59382 19.4926C8.84923 20.0678 10.216 20.5239 11.6524 20.8363C12.7409 21.0733 13.8258 21.2198 14.8861 21.2765C14.3662 23.5805 13.6997 24.7906 13.258 24.7906C13.2298 24.7906 13.2023 24.7956 13.1756 24.8C11.4256 24.7877 9.76719 24.3777 8.28493 23.6487ZM2.22132 16.3096C2.1208 15.92 2.05734 15.5215 2.03181 15.1195C2.42492 15.6898 2.90327 16.2457 3.47321 16.7829C4.33411 17.593 5.35563 18.3183 6.4941 18.9403C6.26161 20.2661 6.19609 21.4676 6.34263 22.4357C4.3806 20.9232 2.91243 18.7823 2.22132 16.3096ZM16.8404 13.09C16.8404 12.6217 16.8333 12.1513 16.8199 11.683C18.2832 11.5839 19.6379 11.1961 20.7468 10.5462C21.774 12.6174 22.3249 14.8028 22.3206 16.8655C22.3199 17.463 22.2692 18.0311 22.1762 18.5676C21.6478 18.8972 21.0399 19.183 20.3558 19.4186C19.1412 19.8351 17.7731 20.0621 16.3225 20.1002C16.672 17.9693 16.8404 15.4952 16.8404 13.09ZM11.899 19.6649C10.4421 19.3468 9.06551 18.8749 7.81926 18.2781C8.22857 16.4008 8.99084 14.1263 10.1983 11.6012C10.3738 11.2356 10.5527 10.8758 10.7352 10.5239C11.5799 10.9103 12.4992 11.2169 13.463 11.4266C14.195 11.5868 14.9276 11.6737 15.6441 11.6988C15.6575 12.1484 15.6631 12.6117 15.6631 13.09C15.6631 15.9131 15.4419 18.2566 15.1221 20.0879C14.071 20.0413 12.9882 19.9012 11.899 19.6649ZM4.27211 15.9031C3.27313 14.9623 2.58625 13.9654 2.23611 12.9758C2.51368 11.8669 3.05051 10.7537 3.84025 9.68721C4.58913 8.676 5.52118 7.76535 6.58991 6.98253C6.89848 7.55061 7.33033 8.10505 7.88055 8.63076C8.40329 9.1299 9.01268 9.58235 9.68829 9.97807C9.50076 10.3409 9.31898 10.7067 9.14301 11.0755C8.09965 13.2551 7.24791 15.5943 6.74772 17.7158C5.81848 17.1822 4.98365 16.5746 4.27211 15.9031ZM16.0415 4.7619C17.3786 5.77669 18.6044 7.08594 19.6295 8.61711C19.8239 8.90726 20.0071 9.20243 20.1811 9.50048C19.242 10.0542 18.0528 10.3853 16.7713 10.4779C16.6628 8.40884 16.4226 6.41803 16.0415 4.7619ZM13.7096 10.2546C12.8585 10.07 12.0498 9.80355 11.3044 9.4696C12.402 7.51255 13.6018 5.81117 14.786 4.54645C15.1559 6.03021 15.4659 8.02533 15.5969 10.4988C14.9734 10.4722 14.3394 10.3925 13.7096 10.2546ZM8.68438 7.75601C8.19757 7.29206 7.82842 6.80801 7.57973 6.3218C8.68156 5.64599 9.90105 5.09514 11.2001 4.69655C11.973 4.45955 12.755 4.28431 13.5348 4.16294C12.4091 5.4492 11.2847 7.08307 10.254 8.9288C9.66504 8.58192 9.13737 8.18907 8.68438 7.75601ZM6.15523 3.93599C6.13903 3.99632 6.12212 4.05808 6.10874 4.12128C5.98968 4.68649 6.00377 5.26607 6.14326 5.84061C4.87798 6.73044 3.77755 7.78258 2.90116 8.96471C2.63415 9.32452 2.39533 9.69223 2.17905 10.0621C2.83071 7.60735 4.24816 5.47147 6.15523 3.93599ZM7.25848 4.37121C7.38881 3.74926 7.75585 3.19339 8.32297 2.73375C9.69604 2.31577 11.2931 2.41631 12.972 3.04257C12.2653 3.16753 11.5587 3.33415 10.862 3.54889C9.565 3.94533 8.34059 4.48827 7.21902 5.14757C7.19366 4.88543 7.20564 4.62545 7.25848 4.37121ZM16.7995 2.79192C17.2032 2.52548 17.5751 2.34306 17.8858 2.26765C18.4755 2.50824 19.0602 2.81634 19.6147 3.2056C18.7249 2.97865 17.7787 2.84076 16.7995 2.79192ZM14.8184 1.50853C15.2954 1.56311 15.8047 1.64642 16.3282 1.77066C16.0006 1.95021 15.661 2.17428 15.3151 2.4436C15.1615 2.08954 14.996 1.77785 14.8184 1.50853ZM13.544 1.97894C13.0121 1.77138 12.4866 1.61051 11.968 1.4956C12.3837 1.4482 12.8043 1.42091 13.2326 1.42091C13.4327 1.42306 13.6786 1.66868 13.9357 2.1434C13.8054 2.08667 13.675 2.03065 13.544 1.97894ZM0.604492 13.1108C0.604492 14.336 0.777094 15.5203 1.092 16.6443C1.11103 16.7197 1.12934 16.7951 1.15118 16.8705C1.15541 16.8841 1.16175 16.8971 1.16668 16.9121C2.76167 22.17 7.5748 26 13.2488 26C15.8738 26 18.3135 25.1799 20.3368 23.7794C20.3572 23.7672 20.3776 23.7571 20.396 23.7442C20.5157 23.6609 20.632 23.5733 20.7447 23.4814C23.0716 21.7297 24.7892 19.1852 25.5134 16.2414C25.5543 16.1063 25.5895 15.9684 25.6191 15.8291C25.6262 15.7954 25.6283 15.7638 25.6297 15.7307C25.8023 14.884 25.8925 14.0078 25.8925 13.1115C25.8925 11.3721 25.5585 9.68362 24.8984 8.09499C24.7716 7.78976 24.4271 7.64685 24.1277 7.77684C23.8283 7.90467 23.6888 8.2573 23.8149 8.56181C24.413 10.0018 24.7159 11.5329 24.7159 13.1115C24.7159 14.0789 24.5983 15.0183 24.3792 15.9182C24.2052 16.4855 23.9001 17.0105 23.4781 17.4874C23.4887 17.2842 23.495 17.0788 23.4957 16.8683C23.5007 14.5687 22.8765 12.1398 21.7197 9.8567C22.5679 9.1141 23.1097 8.19626 23.295 7.16997C23.3541 6.84463 23.1428 6.53222 22.8237 6.4719C22.5038 6.41085 22.1974 6.62631 22.1382 6.95236C22.0156 7.63105 21.6697 8.25371 21.1286 8.7823C20.9603 8.49861 20.7855 8.2178 20.6003 7.9413C19.5682 6.39864 18.3416 5.06426 16.9996 3.99919C18.7714 4.11841 20.4086 4.55578 21.7275 5.307C21.9339 5.42694 22.2086 5.42335 22.4024 5.25888C22.6518 5.04702 22.6856 4.66782 22.4763 4.41358C20.5819 1.71249 17.3053 0.22226 13.2474 0.22226C6.27711 0.221541 0.604492 6.00364 0.604492 13.1108Z" fill="white"/>
</g>
</mask>
<g mask="url(#mask0_2_8120)">
<path id="Vector_2" d="M0.604492 0.221649H25.8925V26.0001H0.604492V0.221649Z" fill="#B6B3EB"/>
</g>
</g>
<path id="Vector_3" d="M28.6758 5.96843H35.06V7.30355H32.7154V13.9999H31.0225V7.30355H28.6765L28.6758 5.96843ZM35.9561 13.9993V5.96783H37.6484V9.13794H40.6277V5.96795H42.3403V13.9993H40.6495V10.4723H37.6483V13.9993H35.9561ZM43.7189 5.96843H49.0013V7.30355H45.4119V9.18377H48.773V10.5182H45.4119V12.6656H49.1218V14H43.7196L43.7189 5.96843ZM57.4051 5.96843H59.3135L60.6887 12.0092H60.7101L61.9768 5.96843H63.5915L61.5837 13.9999H59.7076L58.2896 7.88095H58.2682L56.7387 13.9999H54.8196L52.8992 5.96843H54.6457L55.856 12.0092H55.8801L57.4051 5.96843ZM64.1666 9.98446C64.1666 7.61517 65.3445 5.80029 67.9518 5.80029C70.5585 5.80029 71.7385 7.61445 71.7385 9.98446C71.7385 12.3545 70.5585 14.1658 67.9518 14.1658C65.343 14.1658 64.1666 12.3536 64.1666 9.98446ZM65.9652 9.98446C65.9652 11.362 66.2822 12.9197 67.9511 12.9197C69.6208 12.9197 69.9378 11.362 69.9378 9.98446C69.9378 8.6041 69.6208 7.04567 67.9511 7.04567C66.2821 7.04567 65.9652 8.60494 65.9652 9.98446ZM74.5436 13.9993H72.8513V5.96783H76.2005C77.5545 5.97872 78.9403 6.42316 78.9403 8.05985C78.9403 9.10479 78.2747 9.79575 77.3037 10.0061V10.0279C78.6028 10.1722 78.6028 10.9838 78.7444 12.097C78.8219 12.609 78.8861 13.5549 79.2023 13.998H77.3361C77.1952 13.2869 77.1177 12.5638 77.0424 11.8398C76.9978 11.3958 76.8883 10.784 76.3329 10.7624H74.5442V13.9979L74.5436 13.9993ZM74.5436 9.42729H75.9604C76.7043 9.41377 77.1397 9.03801 77.1397 8.32492C77.1397 7.61385 76.7044 7.31289 75.9603 7.30224H74.5436V9.42729ZM80.2368 13.9993V5.96783H81.9291V12.6649H85.3446V13.9993H80.2368ZM86.2588 5.96843H88.9444C91.3982 5.94677 92.9263 7.19155 92.9263 9.98458C92.9263 12.7762 91.3982 14.0216 88.9445 13.9994H86.2588V5.96843ZM87.9496 12.6648H88.8225C90.8317 12.6866 91.127 11.2623 91.127 9.98446C91.127 8.70462 90.8318 7.28118 88.8226 7.30343H87.9496V12.6648ZM97.211 13.9993V5.96783H100.169C101.576 5.87879 103.017 6.4806 103.017 8.04848C103.017 8.92684 102.415 9.53954 101.631 9.8052V9.82698C102.624 10.0389 103.365 10.7398 103.365 11.9176C103.365 13.5084 101.399 14.0881 100.19 13.9982L97.211 13.9993ZM100.223 12.6642C101.02 12.6642 101.565 12.5193 101.565 11.5963C101.565 10.6734 101.02 10.5284 100.223 10.5284H98.9011V12.665L100.223 12.6642ZM100.223 9.19466C100.932 9.19466 101.324 8.89381 101.324 8.24881C101.324 7.60248 100.932 7.30367 100.223 7.30367H98.9011V9.19538L100.223 9.19466ZM103.89 13.9993L106.739 5.96783H108.747L111.485 13.9993H109.784L109.216 12.2972H106.095L105.505 13.9993H103.89ZM108.79 10.9629L107.71 7.53643H107.689L106.533 10.9629H108.79ZM117.073 13.9993L113.962 7.3245L113.941 7.34628V13.9981H112.36V5.96663H114.868L117.871 12.2853L117.892 12.2609V5.96507H119.475V13.9972L117.073 13.9993ZM122.543 9.43878H122.564L125.184 5.96783H127.158L124.266 9.56096L127.41 13.9994H125.304L122.565 9.9056H122.544V13.9994H120.853V5.96771H122.544L122.543 9.43878Z" fill="#B6B3EB"/>
</g>
</svg>
